<svg width="18" height="18" viewBox="0 0 18 18" fill="none" xmlns="http://www.w3.org/2000/svg">
<path d="M17.0156 8.47615H9.55548V1.01599C9.55548 0.471069 9.99845 0.0316162 10.5399 0.0316162C10.582 0.0316162 10.6207 0.0351318 10.6629 0.0386475C14.4774 0.534351 17.4973 3.55427 17.993 7.36521C18.0598 7.9031 17.6801 8.3988 17.1422 8.4656C17.0965 8.47615 17.0578 8.47615 17.0156 8.47615Z" fill="#909BA4"/>
<path d="M16.9453 10.575C16.3969 14.7445 12.8285 17.9648 8.50781 17.9648C3.82148 17.9648 0 14.1433 0 9.457C0 5.13629 3.22031 1.56793 7.38984 1.01949C7.92773 0.945667 8.42344 1.32535 8.49727 1.86324C8.5043 1.90895 8.50781 1.95114 8.50781 1.99684V9.457H15.968C16.5129 9.457 16.9523 9.89645 16.9523 10.4414C16.9559 10.4871 16.9523 10.5328 16.9453 10.575Z" fill="#909BA4"/>
</svg>
