<svg width="19" height="19" viewBox="0 0 19 19" fill="none" xmlns="http://www.w3.org/2000/svg">
<path d="M2.20752 8.7228C1.84509 8.72382 1.49035 8.82743 1.18434 9.02164C0.878339 9.21585 0.633575 9.49274 0.478367 9.82025C0.323159 10.1478 0.26385 10.5125 0.307303 10.8724C0.350756 11.2322 0.495195 11.5723 0.723908 11.8535L5.59954 17.8261C5.77338 18.042 5.99622 18.2133 6.24954 18.3257C6.50286 18.4381 6.77935 18.4885 7.05605 18.4727C7.64785 18.4409 8.18214 18.1243 8.52278 17.6038L18.6507 1.29276C18.6524 1.29003 18.6541 1.28734 18.6559 1.28468C18.7509 1.13877 18.7201 0.849618 18.524 0.667968C18.4701 0.618084 18.4065 0.57976 18.3373 0.555355C18.268 0.53095 18.1945 0.520981 18.1213 0.526062C18.048 0.531143 17.9766 0.551167 17.9114 0.584899C17.8461 0.618632 17.7885 0.66536 17.742 0.722204C17.7384 0.726674 17.7346 0.731076 17.7308 0.73541L7.51664 12.2759C7.47778 12.3198 7.43057 12.3556 7.37777 12.3811C7.32497 12.4066 7.26762 12.4214 7.20906 12.4245C7.15051 12.4277 7.0919 12.4192 7.03665 12.3995C6.98141 12.3798 6.93062 12.3494 6.88725 12.3099L3.49736 9.2251C3.14529 8.90237 2.68513 8.72317 2.20752 8.7228Z" fill="#16236E"/>
</svg>
