<svg width="97" height="97" viewBox="0 0 97 97" fill="none" xmlns="http://www.w3.org/2000/svg">
<path d="M94.7447 30.8589L49.5363 16.338C48.8798 16.1076 48.1651 16.103 47.5057 16.3251L2.24878 30.8606C1.59526 31.0713 1.02546 31.484 0.621356 32.0391C0.217257 32.5943 -0.000297654 33.2633 3.05652e-07 33.95V77.0988C0.000489491 78.1081 0.31583 79.0921 0.902076 79.9136C1.48832 80.7352 2.31626 81.3534 3.27052 81.6821L46.9043 96.7268C47.9299 97.0892 49.0487 97.0898 50.0746 96.7284L93.7246 81.6772C94.679 81.3496 95.5074 80.7325 96.0945 79.9119C96.6816 79.0912 96.9981 78.1079 97 77.0988V33.95C97 32.5387 96.0882 31.289 94.7447 30.8589ZM46.8833 19.9238V42.0333C46.8833 42.4621 47.0537 42.8733 47.3568 43.1765C47.66 43.4797 48.0712 43.65 48.5 43.65C48.9288 43.65 49.34 43.4797 49.6432 43.1765C49.9463 42.8733 50.1167 42.4621 50.1167 42.0333V19.9206L93.7667 33.9371V33.9629H93.757L48.5 48.5L3.24303 33.9371L46.8833 19.9238ZM3.23333 77.0988V37.3563L46.8833 51.3761V93.2995L4.32782 78.6266C4.00893 78.5177 3.73201 78.312 3.53578 78.0381C3.33955 77.7642 3.2338 77.4358 3.23333 77.0988ZM92.6738 78.6266L50.1167 93.3011V51.3761L93.7667 37.3547V77.0988C93.7663 77.4356 93.6608 77.7638 93.4649 78.0377C93.269 78.3116 92.9924 78.5175 92.6738 78.6266Z" fill="#16236E"/>
<path d="M41.4043 53.0121L10.6877 43.1505C10.2031 42.995 9.68864 42.9561 9.18618 43.0369C8.68373 43.1178 8.20745 43.3161 7.79611 43.6158C7.38476 43.9154 7.04995 44.3079 6.81892 44.7614C6.58789 45.2149 6.46716 45.7164 6.46655 46.2254V73.6392C6.4668 74.3119 6.67687 74.9678 7.0675 75.5155C7.45812 76.0632 8.00985 76.4754 8.64582 76.6947L39.3625 87.2871C39.8497 87.4551 40.3699 87.5042 40.8799 87.4303C41.3899 87.3565 41.8749 87.1618 42.2944 86.8625C42.7139 86.5632 43.0558 86.168 43.2916 85.7098C43.5274 85.2516 43.6502 84.7437 43.6499 84.2283V56.0983C43.653 55.4119 43.4368 54.7423 43.0329 54.1872C42.629 53.6321 42.0585 53.2204 41.4043 53.0121ZM9.69989 57.1847L40.4166 67.0464V74.6092L9.69989 64.7475V57.1847ZM40.4166 56.0983V63.6627L9.69989 53.8011V46.2254L40.4166 56.0983ZM9.69989 73.6392V68.1425L40.4166 78.0042V84.2283L9.69989 73.6392ZM89.2043 43.6112C88.7923 43.3127 88.316 43.1151 87.8136 43.0342C87.3113 42.9533 86.797 42.9915 86.3121 43.1456L55.5954 53.0073C54.9405 53.2158 54.3694 53.6282 53.9654 54.1843C53.5614 54.7404 53.3458 55.411 53.3499 56.0983V84.2283C53.3501 84.7434 53.4733 85.2509 53.7093 85.7087C53.9453 86.1665 54.2873 86.5613 54.7067 86.8602C55.1261 87.1591 55.6109 87.3535 56.1207 87.4272C56.6304 87.5009 57.1504 87.4517 57.6373 87.2838L88.354 76.6914C88.9894 76.4723 89.5408 76.0606 89.9313 75.5136C90.3219 74.9665 90.5323 74.3113 90.5332 73.6392V46.2254C90.532 45.716 90.4111 45.214 90.1803 44.7599C89.9494 44.3059 89.6151 43.9124 89.2043 43.6112ZM87.2999 46.2254V57.4741L79.1761 60.0786C78.2233 60.4014 77.399 61.0212 76.8244 61.847C76.2497 62.6728 75.9549 63.661 75.9832 64.6667C75.9812 65.3631 75.7544 66.0402 75.3366 66.5973C74.9187 67.1544 74.3322 67.5618 73.6642 67.7587C72.9962 67.9556 72.2825 67.9316 71.6293 67.6902C70.9761 67.4489 70.4182 67.0031 70.0387 66.4191C69.482 65.5923 68.668 64.9724 67.7229 64.6555C66.7779 64.3387 65.7547 64.3426 64.8121 64.6667L56.5832 67.3035V56.0983L87.2999 46.2254ZM56.5832 84.2283V70.6968L65.7982 67.7513C66.064 67.652 66.3542 67.6389 66.6278 67.7137C66.9014 67.7886 67.1445 67.9477 67.3227 68.1684C68.0822 69.3405 69.2007 70.2353 70.511 70.7189C71.8213 71.2025 73.2529 71.2488 74.5918 70.851C75.9306 70.4532 77.1047 69.6326 77.9383 68.512C78.772 67.3914 79.2204 66.031 79.2166 64.6343C79.1944 64.3191 79.2744 64.0051 79.4447 63.7389C79.6151 63.4727 79.8667 63.2686 80.1623 63.1567L87.2999 60.8691V73.6408L56.5832 84.2283ZM48.4999 12.9333C48.9287 12.9333 49.3399 12.763 49.643 12.4598C49.9462 12.1566 50.1166 11.7454 50.1166 11.3167V1.61667C50.1166 1.18791 49.9462 0.776702 49.643 0.473518C49.3399 0.170335 48.9287 7.62939e-06 48.4999 7.62939e-06C48.0711 7.62939e-06 47.6599 0.170335 47.3567 0.473518C47.0535 0.776702 46.8832 1.18791 46.8832 1.61667V11.3167C46.8832 11.7454 47.0535 12.1566 47.3567 12.4598C47.6599 12.763 48.0711 12.9333 48.4999 12.9333ZM26.0363 15.2727C26.228 15.6564 26.5642 15.9483 26.9711 16.0841C27.378 16.2199 27.8221 16.1886 28.2059 15.9969C28.5896 15.8053 28.8815 15.469 29.0173 15.0621C29.1532 14.6553 29.1218 14.2111 28.9301 13.8274L24.0801 4.12736C23.8885 3.74361 23.5522 3.45172 23.1454 3.31589C22.7385 3.18007 22.2943 3.21143 21.9106 3.40309C21.5268 3.59475 21.2349 3.931 21.0991 4.33787C20.9633 4.74475 20.9946 5.18891 21.1863 5.57266L26.0363 15.2727ZM68.7939 16.005C68.9848 16.101 69.1928 16.1582 69.4059 16.1733C69.619 16.1884 69.833 16.1611 70.0355 16.093C70.238 16.0249 70.4249 15.9173 70.5856 15.7765C70.7463 15.6357 70.8775 15.4645 70.9716 15.2727L75.8216 5.57266C76.0132 5.18891 76.0446 4.74475 75.9088 4.33787C75.7729 3.931 75.481 3.59475 75.0973 3.40309C74.7135 3.21143 74.2694 3.18007 73.8625 3.31589C73.4556 3.45172 73.1194 3.74361 72.9277 4.12736L68.0777 13.8274C67.9812 14.0173 67.9231 14.2244 67.9069 14.4368C67.8906 14.6492 67.9166 14.8627 67.9831 15.0651C68.0497 15.2674 68.1556 15.4547 68.2947 15.616C68.4338 15.7773 68.6035 15.9095 68.7939 16.005Z" fill="#16236E"/>
</svg>
