<svg width="22" height="22" viewBox="0 0 22 22" fill="none" xmlns="http://www.w3.org/2000/svg">
<path d="M1.6745 10.4649C1.71593 10.6396 1.80902 10.7977 1.94165 10.9187C2.07429 11.0397 2.24029 11.1179 2.41803 11.1431L9.72113 12.168L14.5866 17.7077C14.8181 17.9704 15.1808 18.0735 15.5137 17.974L15.5619 17.9577C15.7308 17.8967 15.8774 17.7862 15.9825 17.6407C16.0877 17.4952 16.1465 17.3213 16.1514 17.1419L16.5806 1.13524C16.5891 0.798948 16.4076 0.48499 16.1117 0.324581C15.8157 0.164172 15.4553 0.187127 15.1766 0.377663L2.03301 9.5252C1.88551 9.62746 1.77236 9.77191 1.70838 9.9396C1.64441 10.1073 1.6326 10.2904 1.6745 10.4649Z" fill="white"/>
</svg>
