<svg width="26" height="17" viewBox="0 0 26 17" fill="none" xmlns="http://www.w3.org/2000/svg">
<path fill-rule="evenodd" clip-rule="evenodd" d="M25.5714 4.26193V13.526C25.5714 14.4478 25.2055 15.3313 24.5535 15.9821C24.2312 16.3049 23.8483 16.561 23.4268 16.7357C23.0054 16.9103 22.5536 17.0002 22.0974 17H3.56929C2.64752 17 1.76396 16.6341 1.11316 15.9821C0.790343 15.6597 0.534272 15.2769 0.359609 14.8554C0.184946 14.434 0.0951212 13.9822 0.0952761 13.526V4.26193C0.0952761 3.34016 0.461206 2.4566 1.11316 1.8058C1.43553 1.48298 1.8184 1.22691 2.23986 1.05225C2.66131 0.877584 3.11308 0.78776 3.56929 0.787914H22.0974C23.0192 0.787914 23.9027 1.15384 24.5535 1.8058C24.8763 2.12817 25.1324 2.51104 25.3071 2.9325C25.4817 3.35395 25.5716 3.80572 25.5714 4.26193ZM5.88531 8.31495C6.11349 8.31488 6.33942 8.26986 6.55021 8.18247C6.76099 8.09508 6.9525 7.96702 7.1138 7.80562C7.27509 7.64421 7.40302 7.45262 7.49027 7.24178C7.57752 7.03093 7.62239 6.80497 7.62232 6.57679C7.62224 6.3486 7.57722 6.12267 7.48983 5.91189C7.40244 5.7011 7.27438 5.50959 7.11298 5.3483C6.95158 5.187 6.75998 5.05907 6.54914 4.97182C6.3383 4.88457 6.11233 4.8397 5.88415 4.83978C5.42331 4.83993 4.98141 5.02315 4.65566 5.34912C4.32991 5.67509 4.14699 6.11711 4.14714 6.57795C4.14729 7.03878 4.33051 7.48068 4.65648 7.80644C4.98245 8.13219 5.42447 8.31511 5.88531 8.31495ZM19.7814 8.31495C20.0096 8.31488 20.2355 8.26986 20.4463 8.18247C20.6571 8.09508 20.8486 7.96702 21.0099 7.80562C21.1712 7.64421 21.2991 7.45262 21.3863 7.24178C21.4736 7.03093 21.5185 6.80497 21.5184 6.57679C21.5183 6.3486 21.4733 6.12267 21.3859 5.91189C21.2985 5.7011 21.1705 5.50959 21.0091 5.3483C20.8476 5.187 20.6561 5.05907 20.4452 4.97182C20.2344 4.88457 20.0084 4.8397 19.7802 4.83978C19.3194 4.83993 18.8775 5.02315 18.5517 5.34912C18.226 5.67509 18.0431 6.11711 18.0432 6.57795C18.0434 7.03878 18.2266 7.48068 18.5525 7.80644C18.8785 8.13219 19.3205 8.31511 19.7814 8.31495ZM10.5173 5.41994H15.1494C15.4565 5.41994 15.751 5.54194 15.9682 5.75911C16.1854 5.97628 16.3074 6.27082 16.3074 6.57795C16.3074 6.88507 16.1854 7.17961 15.9682 7.39678C15.751 7.61395 15.4565 7.73595 15.1494 7.73595H10.5173C10.2102 7.73595 9.91567 7.61395 9.6985 7.39678C9.48133 7.17961 9.35933 6.88507 9.35933 6.57795C9.35933 6.27082 9.48133 5.97628 9.6985 5.75911C9.91567 5.54194 10.2102 5.41994 10.5173 5.41994ZM5.88531 12.947C6.34614 12.9468 6.78805 12.7636 7.1138 12.4376C7.43955 12.1117 7.62247 11.6696 7.62232 11.2088C7.62216 10.748 7.43895 10.3061 7.11298 9.98032C6.78701 9.65457 6.34499 9.47165 5.88415 9.4718C5.42331 9.47196 4.98141 9.65517 4.65566 9.98114C4.32991 10.3071 4.14699 10.7491 4.14714 11.21C4.14729 11.6708 4.33051 12.1127 4.65648 12.4385C4.98245 12.7642 5.42447 12.9471 5.88531 12.947ZM10.5173 12.947C10.9782 12.9468 11.4201 12.7636 11.7458 12.4376C12.0716 12.1117 12.2545 11.6696 12.2543 11.2088C12.2542 10.748 12.071 10.3061 11.745 9.98032C11.419 9.65457 10.977 9.47165 10.5162 9.4718C10.0553 9.47196 9.61343 9.65517 9.28768 9.98114C8.96193 10.3071 8.77901 10.7491 8.77916 11.21C8.77932 11.6708 8.96253 12.1127 9.2885 12.4385C9.61447 12.7642 10.0565 12.9471 10.5173 12.947ZM15.1494 12.947C15.3775 12.9469 15.6035 12.9019 15.8143 12.8145C16.025 12.7271 16.2166 12.599 16.3778 12.4376C16.5391 12.2762 16.6671 12.0846 16.7543 11.8738C16.8416 11.663 16.8864 11.437 16.8864 11.2088C16.8863 10.9806 16.8413 10.7547 16.7539 10.5439C16.6665 10.3331 16.5384 10.1416 16.377 9.98032C16.2156 9.81903 16.024 9.6911 15.8132 9.60385C15.6023 9.5166 15.3764 9.47173 15.1482 9.4718C14.6874 9.47196 14.2455 9.65517 13.9197 9.98114C13.594 10.3071 13.411 10.7491 13.4112 11.21C13.4113 11.6708 13.5946 12.1127 13.9205 12.4385C14.2465 12.7642 14.6885 12.9471 15.1494 12.947ZM19.7814 12.947C20.0096 12.9469 20.2355 12.9019 20.4463 12.8145C20.6571 12.7271 20.8486 12.599 21.0099 12.4376C21.1712 12.2762 21.2991 12.0846 21.3863 11.8738C21.4736 11.663 21.5185 11.437 21.5184 11.2088C21.5183 10.9806 21.4733 10.7547 21.3859 10.5439C21.2985 10.3331 21.1705 10.1416 21.0091 9.98032C20.8476 9.81903 20.6561 9.6911 20.4452 9.60385C20.2344 9.5166 20.0084 9.47173 19.7802 9.4718C19.3194 9.47196 18.8775 9.65517 18.5517 9.98114C18.226 10.3071 18.0431 10.7491 18.0432 11.21C18.0434 11.6708 18.2266 12.1127 18.5525 12.4385C18.8785 12.7642 19.3205 12.9471 19.7814 12.947Z" fill="#909BA4"/>
</svg>
