<svg width="22" height="24" viewBox="0 0 22 24" fill="none" xmlns="http://www.w3.org/2000/svg">
<path d="M11 13.8958C12.9445 13.8958 14.5208 12.3195 14.5208 10.375C14.5208 8.4305 12.9445 6.85417 11 6.85417C9.05546 6.85417 7.47913 8.4305 7.47913 10.375C7.47913 12.3195 9.05546 13.8958 11 13.8958Z" fill="#6A747C"/>
<path d="M17.9875 3.1925C17.0303 2.24985 15.8912 1.51204 14.6396 1.02405C13.388 0.53607 12.0501 0.308141 10.7075 0.354166C8.24954 0.446823 5.90953 1.43163 4.12503 3.12441C2.34052 4.8172 1.23373 7.10204 1.01163 9.55167C0.836495 11.6763 1.34414 13.8013 2.46065 15.6173C3.57717 17.4334 5.24424 18.8456 7.21914 19.6483C7.97243 19.9352 8.61147 20.4601 9.03913 21.1433L10.3066 23.2558C10.379 23.3749 10.4808 23.4733 10.6022 23.5416C10.7237 23.6099 10.8607 23.6457 11 23.6457C11.1393 23.6457 11.2763 23.6099 11.3977 23.5416C11.5191 23.4733 11.6209 23.3749 11.6933 23.2558L12.9608 21.1433C13.3868 20.4629 14.0214 19.9385 14.77 19.6483C16.3129 19.0232 17.6756 18.023 18.7346 16.7385C19.7936 15.454 20.5156 13.9256 20.835 12.2917C21.1545 10.6579 21.0614 8.97013 20.5642 7.38131C20.067 5.79249 19.1813 4.35277 17.9875 3.1925ZM11 15.5208C9.98222 15.5208 8.98732 15.219 8.1411 14.6536C7.29487 14.0882 6.63531 13.2845 6.24584 12.3442C5.85636 11.4039 5.75446 10.3693 5.95301 9.3711C6.15156 8.3729 6.64166 7.456 7.36131 6.73635C8.08097 6.01669 8.99787 5.52659 9.99607 5.32804C10.9943 5.12949 12.0289 5.23139 12.9692 5.62087C13.9095 6.01034 14.7131 6.6699 15.2786 7.51613C15.844 8.36236 16.1458 9.35725 16.1458 10.375C16.1447 11.7394 15.6021 13.0476 14.6374 14.0124C13.6726 14.9772 12.3644 15.5197 11 15.5208Z" fill="#6A747C"/>
</svg>
