<svg width="393" height="206" viewBox="0 0 393 206" fill="none" xmlns="http://www.w3.org/2000/svg">
<path d="M368.751 4.8721C368.751 4.44638 369.118 3.16924 369.606 2.034L370.46 1.52588e-05L371.355 1.32445C372.901 3.45303 373.267 4.63557 373.878 9.17654C374.163 11.5416 374.447 13.6702 374.447 13.8594C374.447 14.0486 375.058 14.0959 375.831 13.9067L377.255 13.6229L377.377 15.7042C377.499 17.5017 377.621 17.7382 378.434 17.5963C379.126 17.4544 379.33 17.6909 379.33 18.5896C379.33 19.2045 379.696 20.1033 380.143 20.5763C380.713 21.1912 380.957 22.0426 380.957 23.509C380.957 25.2119 381.079 25.543 381.73 25.543C382.218 25.543 382.91 26.2998 383.561 27.6243C384.13 28.8068 384.985 29.8947 385.432 30.0367C386.165 30.3204 386.246 30.6989 386.165 32.5436C386.043 34.6722 386.083 34.7668 387.182 34.9087C387.955 35.0033 388.443 35.429 388.728 36.2332C388.931 36.9427 389.094 48.0113 389.094 63.006V88.5963L393 88.3125V172.652H199.5H1.90735e-06L0 140.959H7.66828L7.54622 147.345L7.42417 153.731H9.05158H10.7197V136.749V119.768L11.6148 119.532C14.0152 118.822 28.9468 118.728 32.6084 119.342L36.3515 119.957V113.004V106.051L37.5721 105.483C38.5892 105.01 40.9489 105.01 49.6963 105.483C55.6771 105.767 60.7627 106.24 60.9662 106.476C61.2103 106.76 61.373 109.882 61.3323 114.045C61.2917 117.923 61.4544 121.093 61.6578 121.093C61.8206 121.093 61.9833 121.613 61.9833 122.275C61.9833 123.221 62.1867 123.458 62.9598 123.458C64.3024 123.458 64.4244 124.262 64.4244 133.722V141.905H65.645C66.4587 141.905 66.8656 142.142 66.8656 142.615C66.8656 143.088 67.2724 143.324 68.0861 143.324C68.8998 143.324 69.3067 143.561 69.3067 144.034C69.3067 144.412 69.6729 144.743 70.0797 144.743C70.69 144.743 70.9341 145.122 71.0155 146.257C71.1375 147.771 71.2189 147.818 73.0904 147.96C74.8806 148.102 75.0026 148.197 75.0026 149.474C75.0026 150.23 75.1654 150.987 75.4095 151.129C75.6536 151.318 75.8163 149.426 75.8163 145.784C75.8163 141.196 75.9384 140.061 76.4266 139.824C76.7521 139.682 77.0369 139.115 77.0369 138.594C77.0369 137.128 79.6408 137.223 80.129 138.689C80.3324 139.351 80.5359 134.999 80.6986 127.715C80.8614 118.538 81.0241 115.653 81.4309 115.606C81.6751 115.558 82.3667 115.511 82.9363 115.464L83.9534 115.416V103.827V92.2385H84.9706H85.9877V79.7981V67.4051L87.2083 66.6009C87.8999 66.1752 88.4288 65.4184 88.4288 64.8981C88.4288 63.1952 89.4053 62.4857 92.7008 61.7289C96.8507 60.8301 98.6816 60.8301 103.36 61.8234L107.144 62.5803V83.7715V104.963L109.707 105.105L112.23 105.246L112.352 119.295L112.433 133.391H114.834C116.868 133.391 117.234 133.533 117.438 134.337C117.641 135.189 118.007 135.283 120.733 135.283H123.825V137.175V139.067H125.453H127.08V147.582V156.096H129.358C131.433 156.096 131.718 155.954 133.02 154.393C133.793 153.447 134.403 152.454 134.403 152.264C134.403 152.028 134.688 151.839 135.014 151.839C135.339 151.839 135.624 152.17 135.624 152.548C135.624 152.974 135.99 153.258 136.641 153.258H137.658V141.905V130.553H139.082H140.506V92.7588C140.506 61.3504 140.588 54.9174 141.076 54.7282C141.361 54.5863 141.849 53.451 142.093 52.1739C142.866 48.7209 143.558 47.6802 145.104 47.8694L146.406 48.0113L146.243 43.6123C146.161 40.9161 146.283 39.2605 146.528 39.2605C146.772 39.2605 146.853 38.8821 146.731 38.3618C146.528 37.4157 147.911 36.4224 148.155 37.3211C148.236 37.6049 149.294 37.8414 150.555 37.8414C152.468 37.8414 152.834 37.6995 152.997 36.8954C153.281 35.7129 154.176 35.9494 154.014 37.1319C153.892 37.8414 154.095 37.9361 155.275 37.6995C156.984 37.3684 158.082 38.4564 157.716 40.1119C157.553 40.9161 157.716 41.2472 158.448 41.5783C159.018 41.8148 159.71 41.8148 160.117 41.5783C160.483 41.3418 161.337 41.2945 162.029 41.4364C163.046 41.6729 163.29 41.5783 163.29 40.9634C163.29 40.2538 163.412 40.2538 164.348 41.1053C164.958 41.6729 165.772 42.0986 166.179 42.0986C166.83 42.0986 166.87 42.3824 166.667 44.4164C166.504 46.072 166.667 47.5383 167.359 49.8561C167.847 51.559 168.416 52.978 168.62 52.978C168.823 52.978 168.986 52.7888 168.986 52.505C168.986 52.2685 169.474 52.6469 170.044 53.3091C170.735 54.066 171.183 55.2958 171.346 56.4783C171.468 57.6136 171.875 58.7015 172.322 59.0326C173.014 59.6476 173.054 61.0193 173.054 88.2652V116.835H174.682H176.309V131.262V145.69H177.53C178.71 145.69 178.75 145.642 178.75 143.277C178.75 141.243 178.873 140.912 179.483 141.054C180.052 141.196 180.215 141.811 180.297 144.649L180.419 148.055H181.843C182.941 148.055 183.348 147.818 183.511 147.109C183.755 146.115 184.975 145.453 185.667 145.926C185.952 146.115 186.074 141.811 186.074 133.107C186.074 125.113 186.277 118.822 186.562 117.025L187.01 113.997H188.8H190.549V110.592V107.233L195.147 107.564C197.628 107.753 200.354 107.99 201.168 108.132L202.673 108.416L202.592 84.8594L202.551 61.2558L204.179 60.6409C205.074 60.2625 206.986 59.7422 208.451 59.4111L211.095 58.8434L211.217 47.6329C211.339 33.064 212.072 32.5909 212.194 46.9234L212.316 57.4717L213.536 57.7082C214.391 57.8974 214.798 58.2758 214.96 59.1273C215.164 60.026 215.53 60.3571 216.669 60.5936C219.639 61.1612 219.436 59.1272 219.436 88.7382C219.436 115.085 219.436 115.416 220.25 115.416C220.779 115.416 221.063 115.085 221.063 114.518C221.063 113.477 222.121 113.051 224.806 113.051C225.864 113.051 226.841 112.815 226.963 112.578C227.085 112.342 227.939 112.105 228.834 112.105C230.258 112.105 230.421 111.963 230.421 110.97C230.421 110.213 230.136 109.693 229.607 109.504C228.875 109.22 228.794 108.794 228.794 105.436V101.699H231.194C233.432 101.699 233.594 101.793 234.083 103.071C234.937 105.578 235.71 106.003 237.541 105.246C238.436 104.868 240.307 104.584 241.731 104.537H244.254V102.787V101.084L249.34 101.415L254.425 101.699V82.5416C254.425 71.9933 254.466 63.3844 254.547 63.3844C254.588 63.3371 259.674 63.0533 265.817 62.6749L277.006 62.0127L280.464 64.1412C282.376 65.2765 285.509 67.1686 287.503 68.2565L291.042 70.2432V93.563V116.93L292.181 116.646C292.792 116.552 293.972 116.315 294.826 116.126L296.331 115.842V112.105V108.368L298.284 108.227C300.034 108.085 300.196 107.99 300.318 106.76C300.441 105.483 300.481 105.483 303.289 105.483H306.096V102.645V99.8068H309.88C313.338 99.8068 313.867 99.9487 316.959 101.557C319.197 102.787 320.336 103.638 320.336 104.159C320.336 104.915 321.271 105.436 325.421 107.091L327.049 107.706L327.171 114.612L327.293 121.566H332.745H338.197L338.319 123.316C338.441 125.019 338.522 125.113 340.068 125.35L341.696 125.586L341.818 135.425L341.899 145.217H343.73C345.276 145.217 345.561 145.358 345.561 146.163C345.561 147.014 345.845 147.109 348.002 147.109C352.07 147.109 352.07 147.109 352.07 135.52C352.07 129.418 352.233 125.823 352.477 125.823C352.721 125.823 352.925 109.787 352.965 79.3251L353.087 32.8748L354.837 32.7328L356.546 32.5909V29.9893V27.435H358.377H360.167L360.289 23.2725L360.411 19.1572L362.567 19.0153L364.683 18.8734V16.5083C364.683 14.427 364.764 14.1906 365.619 14.1906C367.49 14.1432 367.938 13.1972 367.938 9.27115C367.938 7.18988 368.1 5.67622 368.345 5.67622C368.589 5.67622 368.751 5.29782 368.751 4.8721Z" fill="#909BA4"/>
<rect y="172" width="393" height="35" fill="#1C262E"/>
<rect x="22" y="190.595" width="31" height="3.48649" fill="white"/>
<rect x="143" y="190.595" width="31" height="3.48649" fill="white"/>
<rect x="264" y="190.595" width="31" height="3.48649" fill="white"/>
<rect x="385" y="190.595" width="8" height="3.48649" fill="white"/>
<path d="M247.793 115.691C248.355 116.285 249.228 116.237 249.738 115.584L251.36 113.511C251.872 112.858 251.83 111.843 251.266 111.25L198.402 59.1772C197.839 58.5814 196.967 58.6312 196.455 59.2872L195.894 60.0307C195.381 60.6843 195.422 61.696 195.986 62.2902L247.795 115.69L247.793 115.691Z" fill="#16236E" stroke="#16236E" stroke-width="1.495"/>
<path d="M247.73 172.506C250.981 176.69 252.28 180.239 259.451 180.239L280.746 180.153C282.963 180.153 283.382 180.078 285.678 179.51C291.231 178.141 294.06 171.49 294.06 162.718H173.417V172.506H247.729H247.73Z" fill="#16236E" stroke="#16236E" stroke-width="0.6871"/>
<path d="M213.932 190.988C220.185 190.988 225.254 185.097 225.254 177.829C225.254 170.562 220.185 164.671 213.932 164.671C207.679 164.671 202.609 170.562 202.609 177.829C202.609 185.097 207.679 190.988 213.932 190.988Z" fill="#16236E" stroke="#16236E" stroke-width="0.9516"/>
<path d="M207.575 177.829C207.575 181.908 210.421 185.217 213.934 185.217C217.443 185.217 220.289 181.908 220.289 177.829C220.289 173.752 217.443 170.442 213.934 170.442C210.424 170.442 207.578 173.75 207.578 177.829L207.575 177.829Z" fill="#149CD7" stroke="#16236E" stroke-width="1.5226"/>
<path d="M178.759 177.829C178.759 185.098 183.826 190.989 190.079 190.989C196.336 190.989 201.405 185.098 201.405 177.829C201.405 170.561 196.336 164.672 190.079 164.672C183.833 164.672 178.762 170.565 178.762 177.832L178.759 177.829Z" fill="#16236E" stroke="#16236E" stroke-width="0.9516"/>
<path d="M183.726 177.829C183.726 181.908 186.573 185.217 190.08 185.217C193.596 185.217 196.439 181.908 196.439 177.829C196.439 173.752 193.596 170.442 190.08 170.442C186.571 170.442 183.724 173.75 183.724 177.829L183.726 177.829Z" fill="#149CD7" stroke="#16236E" stroke-width="1.5226"/>
<path d="M234.883 143.207H171V163.406H234.883V143.207Z" fill="#149CD7" stroke="#16236E" stroke-width="1.7178"/>
<path d="M291.525 143.392C291.525 143.392 294.044 143.874 294.044 151.403V172.022C290.18 176.51 289.351 177.437 287.377 177.647C285.405 177.856 285.053 177.961 282.72 177.961L279.591 178.065H256.024V133.155C256.024 121.982 259.89 121.325 265.449 121.325H270.469C274.938 121.325 279.302 121.308 281.443 122.118C284.925 123.442 285.113 124.341 286.34 126.947L291.529 143.383L291.525 143.392Z" fill="#149CD7" stroke="#16236E" stroke-width="1.7178"/>
<path d="M272.644 178.07L270.996 168.1C270.553 164.924 267.125 161.505 263.974 161.505H254.508C251.5 161.505 247.908 165.286 246.991 168.789L245.79 178.07" fill="#16236E"/>
<path d="M272.644 178.07L270.996 168.1C270.553 164.924 267.125 161.505 263.974 161.505H254.508C251.5 161.505 247.908 165.286 246.991 168.789L245.79 178.07" stroke="#16236E" stroke-width="0.8589"/>
<path d="M247.937 177.757C247.937 185.024 253.007 190.912 259.26 190.912C265.516 190.912 270.583 185.024 270.583 177.757C270.583 170.487 265.516 164.596 259.26 164.596C253.001 164.596 247.937 170.482 247.937 177.756L247.937 177.757Z" fill="#16236E" stroke="#16236E" stroke-width="0.9516"/>
<path d="M252.905 177.757C252.905 181.833 255.751 185.14 259.26 185.14C262.773 185.14 265.618 181.833 265.618 177.757C265.618 173.677 262.773 170.368 259.26 170.368C255.751 170.368 252.904 173.676 252.904 177.755L252.905 177.757Z" fill="#149CD7" stroke="#16236E" stroke-width="1.5226"/>
<path d="M287.125 173.486C287.125 174.869 287.46 176.406 288.644 176.406H296.721C297.91 176.406 298.243 174.869 298.243 173.486V171.403C298.243 170.023 297.91 168.484 296.721 168.484H288.644C287.46 168.484 287.125 170.023 287.125 171.403V173.474V173.486Z" fill="#149CD7" stroke="#16236E" stroke-width="1.7178"/>
<path d="M265.818 140.18C264.633 140.18 263.67 139.063 263.67 137.679V129.454C263.67 128.071 264.633 126.953 265.818 126.953H286.341L291.528 143.398H286.446L265.809 140.187L265.818 140.18Z" fill="white" stroke="#16236E" stroke-width="1.7178"/>
<path d="M282.855 126.948L286.461 143.392" stroke="#16236E" stroke-width="1.1452"/>
<path d="M294.04 153.332H292.627C292.102 153.332 291.854 153.84 291.677 154.438L291.757 163.816C291.757 164.425 292.183 164.92 292.708 164.92H294.04" fill="white"/>
<path d="M294.04 153.332H292.627C292.102 153.332 291.854 153.84 291.677 154.438L291.757 163.816C291.757 164.425 292.183 164.92 292.708 164.92H294.04" stroke="#16236E" stroke-width="0.8589" stroke-linecap="round"/>
<path d="M279.78 146.363C279.78 147.379 279.895 148.202 280.771 148.202H281.76C282.634 148.202 282.947 147.379 282.947 146.363V136.711C282.947 135.694 282.634 134.873 281.76 134.873H280.771C279.895 134.873 279.78 135.694 279.78 136.711V146.363Z" fill="#149CD7" stroke="#16236E" stroke-width="0.8589"/>
<path d="M252.706 151.831H239.868V162.578H252.706V151.831Z" fill="#16236E" stroke="#16236E" stroke-width="1.7178"/>
<path d="M239.868 151.726C239.868 152.36 240.309 152.875 240.856 152.875H251.717C252.262 152.875 252.706 152.36 252.706 151.726V151.07C252.706 150.434 252.262 149.921 251.717 149.921H240.856C240.309 149.921 239.868 150.434 239.868 151.07V151.728V151.726Z" fill="#16236E" stroke="#16236E" stroke-width="1.7178"/>
<path d="M247.295 151.036C247.254 151.668 247.662 152.22 248.207 152.268L250.253 152.443C250.796 152.49 251.27 152.016 251.31 151.383L253.172 122.212C253.21 121.579 252.803 121.03 252.258 120.982L250.215 120.809C249.671 120.76 249.196 121.234 249.156 121.867L247.297 151.029L247.295 151.036Z" fill="#16236E" stroke="#16236E" stroke-width="1.7178"/>
<path d="M241.61 150.217L245.062 150.514L246.101 134.174L242.649 133.878L241.61 150.217Z" fill="#16236E" stroke="#16236E" stroke-width="1.7178"/>
<path d="M243.013 133.906L245.727 134.14L246.753 118.053L244.039 117.819L243.013 133.906Z" fill="#16236E" stroke="#16236E" stroke-width="1.7178"/>
<path d="M242.852 119.344C242.8 119.976 243.196 120.539 243.741 120.599L251.996 122.371C252.539 122.433 253.024 121.971 253.076 121.337L251.758 113.038C251.808 112.406 251.414 111.845 250.869 111.784L244.096 109.579C243.552 109.517 243.068 109.981 243.017 110.611L242.852 119.355L242.852 119.344Z" fill="#16236E" stroke="#16236E" stroke-width="1.7178"/>
<path d="M196.584 60.8634H198.227V72.6278L201.578 76.5124C202.216 77.5225 202.593 78.7678 202.593 80.1159C202.593 83.4874 200.24 86.2197 197.339 86.2197C194.441 86.2197 192.089 83.4882 192.089 80.1159H193.686C193.686 82.4637 195.32 84.3658 197.339 84.3658C199.36 84.3658 200.996 82.4637 200.996 80.1159C200.996 79.2865 200.79 78.5101 200.433 77.8581L196.584 73.4653V60.8634Z" fill="#16236E"/>
</svg>
