<svg width="18" height="22" viewBox="0 0 18 22" fill="none" xmlns="http://www.w3.org/2000/svg">
<path d="M13.5 10H4.5C4.23478 10 3.98043 9.89464 3.79289 9.70711C3.60536 9.51957 3.5 9.26522 3.5 9V5.5C3.5 4.04131 4.07946 2.64236 5.11091 1.61091C6.14236 0.579463 7.54131 0 9 0C10.4587 0 11.8576 0.579463 12.8891 1.61091C13.9205 2.64236 14.5 4.04131 14.5 5.5V9C14.5 9.26522 14.3946 9.51957 14.2071 9.70711C14.0196 9.89464 13.7652 10 13.5 10ZM5.5 8H12.5V5.5C12.5 4.57174 12.1313 3.6815 11.4749 3.02513C10.8185 2.36875 9.92826 2 9 2C8.07174 2 7.1815 2.36875 6.52513 3.02513C5.86875 3.6815 5.5 4.57174 5.5 5.5V8Z" fill="#6A747C"/>
<path d="M14 8H4C2.93946 8.00106 1.92266 8.42283 1.17274 9.17274C0.422826 9.92266 0.00105895 10.9395 0 12V18C0.00105895 19.0605 0.422826 20.0773 1.17274 20.8273C1.92266 21.5772 2.93946 21.9989 4 22H14C15.0605 21.9989 16.0773 21.5772 16.8273 20.8273C17.5772 20.0773 17.9989 19.0605 18 18V12C17.9989 10.9395 17.5772 9.92266 16.8273 9.17274C16.0773 8.42283 15.0605 8.00106 14 8ZM9 16C8.60444 16 8.21776 15.8827 7.88886 15.6629C7.55996 15.4432 7.30362 15.1308 7.15224 14.7654C7.00087 14.3999 6.96126 13.9978 7.03843 13.6098C7.1156 13.2219 7.30608 12.8655 7.58579 12.5858C7.86549 12.3061 8.22186 12.1156 8.60982 12.0384C8.99778 11.9613 9.39991 12.0009 9.76537 12.1522C10.1308 12.3036 10.4432 12.56 10.6629 12.8889C10.8827 13.2178 11 13.6044 11 14C11 14.5304 10.7893 15.0391 10.4142 15.4142C10.0391 15.7893 9.53043 16 9 16Z" fill="#6A747C"/>
</svg>
