<svg width="87" height="87" viewBox="0 0 87 87" fill="none" xmlns="http://www.w3.org/2000/svg">
<path d="M40.1867 72.8316C58.1874 72.8316 72.8317 58.1871 72.8317 40.1866C72.8317 22.186 58.1872 7.54147 40.1867 7.54147C40.1163 7.54147 40.0462 7.54266 39.9759 7.54385L39.8595 7.54555C39.521 7.54711 39.1969 7.68308 38.9586 7.92356C38.7204 8.16403 38.5874 8.4893 38.5889 8.82782C38.5905 9.16635 38.7265 9.49038 38.9669 9.72866C39.2074 9.96692 39.5327 10.0999 39.8712 10.0984H39.8836L40.0194 10.0965C40.0751 10.0955 40.1308 10.0944 40.1866 10.0944C46.9413 10.0944 53.183 12.3319 58.2105 16.1041L44.7406 34.5155H30.2053C29.5002 34.5155 28.9289 35.087 28.9289 35.7919C28.9289 36.4968 29.5002 37.0683 30.2053 37.0683H45.3883C45.589 37.0683 45.7869 37.021 45.9659 36.9301C46.1449 36.8393 46.3 36.7075 46.4185 36.5455L60.1879 17.7246C61.3203 18.7334 62.3754 19.8258 63.3445 20.9923L53.0685 35.0383C52.9293 35.2286 52.8456 35.4537 52.8265 35.6886C52.8074 35.9236 52.8538 36.1592 52.9604 36.3694C53.0671 36.5797 53.2299 36.7562 53.4308 36.8796C53.6316 37.0029 53.8627 37.0683 54.0985 37.0683H70.1179C70.224 38.0937 70.2789 39.1339 70.2789 40.1868C70.2789 40.6422 70.267 41.0948 70.2469 41.5452H60.3834C59.6784 41.5452 59.1071 42.1167 59.1071 42.8216C59.1071 43.5265 59.6784 44.098 60.3834 44.098H70.025C69.16 50.7336 66.1242 56.6957 61.6566 61.2489H45.9426C45.2375 61.2489 44.6662 61.8204 44.6662 62.5253C44.6662 63.2302 45.2375 63.8017 45.9426 63.8017H58.8172C53.6895 67.8557 47.2161 70.279 40.1869 70.279C33.1577 70.279 26.6843 67.8557 21.5566 63.8017H35.5243C36.2294 63.8017 36.8007 63.2302 36.8007 62.5253C36.8007 61.8204 36.2294 61.2489 35.5243 61.2489H18.7172C18.1332 60.6541 17.5738 60.0355 17.0407 59.3947L28.2318 44.098H54.9441C55.6492 44.098 56.2205 43.5265 56.2205 42.8216C56.2205 42.1167 55.6492 41.5452 54.9441 41.5452H27.5838C27.383 41.5452 27.1851 41.5926 27.0061 41.6834C26.8272 41.7743 26.6721 41.906 26.5536 42.068L15.4299 57.2725C14.5 55.9297 13.6809 54.5135 12.9806 53.0379L19.9034 43.5752C20.0426 43.385 20.1264 43.1599 20.1454 42.9249C20.1645 42.69 20.1181 42.4543 20.0115 42.2441C19.9048 42.0339 19.742 41.8573 19.5412 41.734C19.3403 41.6106 19.1092 41.5453 18.8734 41.5452H10.1265C10.1058 41.0927 10.0951 40.6398 10.0945 40.1868C10.0945 39.1398 10.1497 38.0998 10.2559 37.0683H14.9973C15.7024 37.0683 16.2737 36.4968 16.2737 35.7919C16.2737 35.087 15.7024 34.5155 14.9973 34.5155H10.6303C10.9507 32.8352 11.4148 31.1854 12.0173 29.5844C12.0783 29.4271 12.1074 29.2593 12.1032 29.0907C12.0989 28.9221 12.0613 28.7561 11.9924 28.6021C11.9236 28.4481 11.8249 28.3093 11.7021 28.1937C11.5793 28.0781 11.4348 27.988 11.277 27.9286C11.1192 27.8691 10.9511 27.8415 10.7826 27.8474C10.614 27.8533 10.4483 27.8926 10.295 27.9629C10.1417 28.0332 10.0039 28.1332 9.88947 28.2571C9.77505 28.381 9.68632 28.5264 9.6284 28.6848C8.24377 32.3615 7.54175 36.2313 7.54175 40.1866C7.54158 58.1873 22.1861 72.8316 40.1867 72.8316ZM56.614 34.5153L64.9538 23.1157C67.2828 26.4842 68.9425 30.3483 69.7405 34.5153H56.614ZM16.3581 44.098L11.8371 50.2778C11.1223 48.2767 10.6232 46.205 10.3485 44.0979H16.3581V44.098Z" fill="#16236E"/>
<path d="M85.4567 76.2954L72.8165 63.6552C77.7233 56.8634 80.3735 48.7293 80.3735 40.1866C80.3735 29.4525 76.1932 19.3606 68.603 11.7704C61.0127 4.18012 50.921 0 40.1866 0C38.5411 0 36.8748 0.102282 35.2339 0.304123C34.8979 0.345423 34.5921 0.518504 34.3837 0.785291C34.1753 1.05208 34.0814 1.39072 34.1227 1.72671C34.164 2.06271 34.3371 2.36853 34.6039 2.57691C34.8707 2.78529 35.2093 2.87916 35.5453 2.83786C37.0851 2.64868 38.6351 2.55354 40.1865 2.55297C50.2387 2.55297 59.6897 6.4676 66.7977 13.5758C73.9057 20.6839 77.8205 30.1346 77.8205 40.187C77.8205 50.2394 73.9059 59.69 66.7977 66.7982C59.6895 73.9062 50.2387 77.8208 40.1865 77.8208C30.1342 77.8208 20.6836 73.9058 13.5756 66.7978C6.46743 59.6897 2.5528 50.239 2.5528 40.1866C2.5528 33.9416 4.11409 27.7562 7.06767 22.2994C7.22722 22.0018 7.26236 21.6531 7.16542 21.3297C7.06847 21.0063 6.84734 20.7345 6.55042 20.5737C6.2535 20.413 5.905 20.3765 5.58119 20.4721C5.25739 20.5677 4.98467 20.7878 4.82274 21.0841C1.66766 26.9131 0 33.5186 0 40.1866C0 50.9208 4.18029 61.0127 11.7704 68.6028C19.3606 76.193 29.4523 80.3733 40.1866 80.3733C49.0385 80.3733 57.4521 77.5281 64.3877 72.2746L68.2078 76.0948C68.4572 76.3439 68.7839 76.4687 69.1105 76.4687C69.4371 76.4687 69.7639 76.3441 70.0132 76.0948C70.2525 75.8554 70.387 75.5308 70.387 75.1923C70.387 74.8538 70.2525 74.5292 70.0132 74.2898L66.3858 70.6624C68.1435 69.1471 69.7691 67.4849 71.245 65.694L83.6517 78.1006C84.1645 78.6134 84.4469 79.2951 84.4469 80.0203C84.4469 80.7455 84.1645 81.4272 83.6516 81.94L82.5772 83.0144C82.0644 83.5272 81.3827 83.8095 80.6577 83.8095C79.9327 83.8095 79.2507 83.5272 78.7381 83.0144L73.8597 78.136C73.62 77.8983 73.2959 77.7653 72.9584 77.7661C72.6208 77.7668 72.2973 77.9012 72.0586 78.1399C71.8199 78.3785 71.6855 78.702 71.6847 79.0396C71.684 79.3772 71.8169 79.7013 72.0546 79.941L76.933 84.8194C77.9279 85.8143 79.2507 86.3623 80.6578 86.3623C82.0649 86.3623 83.3878 85.8143 84.3827 84.8194L85.4571 83.745C86.4522 82.7501 87 81.4272 87 80.0201C86.9995 78.6132 86.4515 77.2903 85.4567 76.2954Z" fill="#16236E"/>
<path d="M22.6011 6.08468C21.4026 6.08447 20.2181 6.34226 19.1281 6.8405C18.0381 7.33875 17.0681 8.0658 16.2841 8.97223C14.9691 10.4908 14.2453 12.4324 14.2456 14.4412C14.2456 19.0485 17.9938 22.7966 22.6011 22.7966C23.7995 22.7969 24.9839 22.5392 26.0739 22.041C27.1639 21.5428 28.1338 20.8158 28.9179 19.9094C30.2333 18.3914 30.9572 16.4499 30.9566 14.4412C30.9566 9.83337 27.2084 6.08468 22.6011 6.08468ZM26.9885 18.2379C26.444 18.8675 25.7703 19.3726 25.0133 19.7187C24.2562 20.0648 23.4335 20.2439 22.6011 20.2439C19.4014 20.2439 16.7984 17.6408 16.7984 14.4412C16.798 13.0464 17.3003 11.6983 18.2132 10.6438L18.2137 10.6435C18.7581 10.0138 19.4318 9.50876 20.1888 9.16262C20.9458 8.81648 21.7685 8.63738 22.6009 8.63748C25.8006 8.63748 28.4038 11.241 28.4038 14.4412C28.4042 15.8358 27.9017 17.1838 26.9885 18.2379Z" fill="#16236E"/>
<path d="M16.9857 31.1103C17.852 32.3015 18.4594 33.661 18.7687 35.1011L19.2105 37.1456C19.5531 38.731 20.9793 39.882 22.6013 39.882C24.2232 39.882 25.6494 38.7312 25.9923 37.1456L26.4341 35.1013C26.7434 33.6611 27.3507 32.3016 28.217 31.1103L30.0713 28.5535C30.1698 28.4179 30.2405 28.2641 30.2795 28.1011C30.3185 27.9381 30.325 27.7689 30.2986 27.6034C30.2723 27.4379 30.2136 27.2791 30.1259 27.1363C30.0381 26.9934 29.9232 26.8693 29.7875 26.7708C29.6518 26.6724 29.498 26.6017 29.335 26.5627C29.172 26.5237 29.0029 26.5172 28.8373 26.5435C28.6718 26.5699 28.513 26.6286 28.3702 26.7163C28.2273 26.804 28.1032 26.919 28.0048 27.0547L26.1504 29.6114C25.0758 31.0892 24.3225 32.7755 23.9388 34.562L23.497 36.6063C23.4067 37.0251 23.0299 37.3292 22.6013 37.3292C22.1728 37.3292 21.7964 37.0253 21.7058 36.6064L21.264 34.562C20.8803 32.7756 20.1269 31.0893 19.0523 29.6116L13.141 21.4605C11.6233 19.419 10.821 16.9916 10.821 14.4407C10.821 11.2415 12.0816 8.24826 14.3706 6.01252C16.6588 3.77763 19.682 2.5882 22.8862 2.66376C25.9239 2.73524 28.7881 3.97556 30.9512 6.15616C33.1143 8.33675 34.332 11.211 34.3801 14.2495C34.4215 16.8708 33.6197 19.3642 32.0526 21.4726L31.222 22.618C30.8081 23.1886 30.9352 23.9866 31.5058 24.4005C32.0765 24.8144 32.8746 24.6874 33.2885 24.1166L34.1104 22.9833C36.0071 20.4317 36.9829 17.3977 36.9326 14.209C36.8739 10.5077 35.3934 7.0093 32.7635 4.35814C30.1333 1.70697 26.6468 0.198779 22.9463 0.111643C19.0468 0.0204235 15.3708 1.46701 12.5869 4.18625C9.80196 6.90634 8.26807 10.5482 8.26807 14.4407C8.26807 17.5442 9.2446 20.4983 11.0831 22.9713L16.9857 31.1103ZM40.7333 65.3468C41.0719 65.3468 41.3965 65.2124 41.6359 64.973C41.8753 64.7336 42.0097 64.409 42.0097 64.0704V59.0442C44.3638 58.4694 46.1165 56.3436 46.1165 53.8152C46.1165 50.8469 43.7017 48.432 40.7333 48.432C37.765 48.432 35.35 50.8469 35.35 53.8152C35.35 56.3436 37.1029 58.4694 39.4569 59.0442V64.0704C39.4569 64.409 39.5914 64.7336 39.8308 64.973C40.0702 65.2124 40.3948 65.3468 40.7333 65.3468ZM37.9028 53.815C37.9028 52.2544 39.1726 50.9846 40.7333 50.9846C42.294 50.9846 43.5637 52.2544 43.5637 53.815C43.5637 55.3756 42.294 56.6454 40.7333 56.6454C39.1726 56.6454 37.9028 55.3756 37.9028 53.815Z" fill="#16236E"/>
</svg>
