<svg width="20" height="19" viewBox="0 0 20 19" fill="none" xmlns="http://www.w3.org/2000/svg">
<path d="M18.6932 18.6477C18.4545 18.8864 18.1477 19 17.8409 19C17.5341 19 17.2273 18.8864 16.9886 18.6477L14.25 15.9091C14.8888 15.42 15.4583 14.8466 15.9432 14.2045L18.6932 16.9545C19.1591 17.4205 19.1591 18.1818 18.6932 18.6477Z" fill="#909BA4"/>
<path d="M8.86364 0C3.96591 0 0 3.96591 0 8.86364C0 13.7614 3.96591 17.7273 8.86364 17.7273C10.8864 17.7273 12.75 17.0455 14.25 15.9091C14.8888 15.42 15.4583 14.8466 15.9432 14.2045C17.0682 12.7273 17.7273 10.875 17.7273 8.875C17.7288 7.71005 17.5006 6.55624 17.0558 5.47954C16.6111 4.40285 15.9584 3.42438 15.1352 2.60012C14.312 1.77585 13.3344 1.12194 12.2582 0.67579C11.1821 0.22964 10.0286 -9.57382e-07 8.86364 0ZM8.86364 15.3182C5.30682 15.3182 2.40909 12.4205 2.40909 8.86364C2.40909 5.30682 5.30682 2.40909 8.86364 2.40909C12.4205 2.40909 15.3182 5.30682 15.3182 8.86364C15.3182 12.4205 12.4205 15.3182 8.86364 15.3182Z" fill="#909BA4"/>
</svg>
