<svg width="32" height="32" viewBox="0 0 32 32" fill="none" xmlns="http://www.w3.org/2000/svg">
<g clip-path="url(#clip0_2354_1315)">
<path d="M13.7535 0.377938C13.2508 0.631062 12.8601 1.06214 12.6575 1.58734C12.5064 1.94638 12.4308 2.15803 12.2342 2.38857C12.0339 2.61533 11.6636 2.91768 10.8434 3.24649C10.0271 3.57529 9.55844 3.61687 9.25609 3.58663C8.95752 3.56773 8.73075 3.45435 8.37171 3.30696C7.8646 3.07578 7.29011 3.03946 6.75792 3.20491C6.11542 3.40522 5.54852 3.83985 4.78886 4.58439C4.03298 5.3327 3.57946 5.89961 3.36404 6.5421C3.18784 7.08731 3.22568 7.67914 3.46986 8.19747C3.60969 8.56029 3.69662 8.7606 3.71552 9.06673C3.73441 9.35018 3.68906 9.81505 3.34514 10.6276C2.99744 11.4402 2.7102 11.7841 2.47588 11.9806C2.21132 12.2074 2.04125 12.2527 1.68221 12.4001C1.14108 12.5924 0.691898 12.9808 0.423679 13.4886C0.106211 14.0895 0.00794683 14.7963 0.000388075 15.8621C-0.00717068 16.9278 0.0948725 17.6837 0.378326 18.2544C0.637831 18.7635 1.08086 19.1552 1.61796 19.3504C1.977 19.5016 2.16219 19.5772 2.39273 19.7737C2.6195 19.974 2.92563 20.3444 3.25821 21.1645C3.5908 21.9846 3.62103 22.4646 3.59836 22.7708C3.56812 23.0731 3.4812 23.2243 3.3338 23.5871C3.08992 24.1076 3.04686 24.6998 3.21286 25.25C3.41317 25.9001 3.85535 26.467 4.59989 27.2266C5.34443 27.9863 5.92267 28.436 6.56517 28.6477C7.20766 28.8631 7.77457 28.7233 8.20542 28.5419C8.56824 28.3983 8.77233 28.3151 9.07468 28.2962C9.33923 28.2773 9.81921 28.3227 10.6318 28.6666C11.4481 29.0105 11.8412 29.3582 11.9999 29.5472C12.1927 29.7777 12.2569 29.9705 12.4081 30.3295C12.5966 30.8726 12.9843 31.3237 13.4928 31.5918C14.0937 31.9055 14.8004 32.0038 15.9985 32.0038C17.2003 32.0038 17.9071 31.9055 18.508 31.588C19.0143 31.3201 19.4005 30.8705 19.5889 30.3295C19.7401 29.9705 19.8043 29.7777 20.0009 29.5472C20.1596 29.3582 20.5526 29.0105 21.3652 28.6666C22.1778 28.3227 22.6578 28.2773 22.9261 28.2962C23.2284 28.3151 23.4325 28.3983 23.7954 28.5419C24.3098 28.7803 24.8948 28.818 25.4356 28.6477C26.0781 28.436 26.6526 27.9863 27.4009 27.2266C28.1454 26.467 28.5876 25.9039 28.7879 25.2538C28.9539 24.7035 28.9109 24.1113 28.667 23.5909C28.5196 23.2281 28.4289 23.0731 28.4024 22.7708C28.376 22.4684 28.41 21.9846 28.7426 21.1645C29.0714 20.3444 29.3775 19.974 29.6118 19.7737C29.8386 19.5734 30.0238 19.5054 30.379 19.3466C30.9161 19.1515 31.3592 18.7598 31.6187 18.2506C31.9059 17.6837 32.0079 16.9278 31.9966 15.8621C31.9928 14.7963 31.8908 14.0857 31.5771 13.4886C31.308 12.9801 30.8573 12.5915 30.3148 12.4001C29.9557 12.249 29.7932 12.2074 29.5211 11.9806C29.2906 11.7841 28.9996 11.4402 28.6556 10.6276C28.3117 9.81505 28.2664 9.35018 28.2853 9.06295C28.3079 8.7606 28.3873 8.56029 28.5309 8.19369C28.7729 7.67595 28.8093 7.08569 28.633 6.5421C28.4213 5.89961 27.9716 5.3327 27.2119 4.58439C26.4523 3.83607 25.8891 3.40144 25.2391 3.20113C24.7069 3.03568 24.1324 3.07201 23.6253 3.30318C23.2662 3.45435 23.047 3.56395 22.7409 3.59041C22.4386 3.61687 21.9737 3.57529 21.1536 3.24649C20.3372 2.91012 19.9668 2.61911 19.7665 2.38857C19.5662 2.15425 19.4944 1.94638 19.3395 1.58734C19.1394 1.05996 18.75 0.626073 18.2472 0.370379C17.669 0.0869257 16.9811 0 15.9985 0C15.0159 0 14.328 0.0869257 13.7535 0.377938ZM17.3515 2.1618C17.412 2.1996 17.4158 2.17692 17.5291 2.43392C17.6425 2.69092 17.8088 3.17846 18.2548 3.68867C18.7574 4.26692 19.3773 4.68265 20.3977 5.0946C21.4559 5.52167 22.2345 5.64261 22.911 5.58592C23.5837 5.52545 24.0826 5.28357 24.3434 5.17775C24.5134 5.10216 24.5588 5.08326 24.6759 5.12106C24.7969 5.15885 25.1559 5.36672 25.8098 6.01299C26.5354 6.72351 26.7017 7.06366 26.7168 7.12413C26.7546 7.24129 26.7546 7.24507 26.6715 7.48317C26.5694 7.74395 26.3313 8.23905 26.286 8.91933C26.2368 9.59206 26.3993 10.4311 26.8151 11.4024C27.2421 12.419 27.7146 13.0804 28.2323 13.5188C28.7501 13.9535 29.1847 14.0933 29.5173 14.2369C29.6232 14.2747 29.7819 14.3427 29.8083 14.4259C29.8688 14.5355 29.9935 14.9663 30.0011 15.8885C30.0087 16.8145 29.8915 17.2226 29.8386 17.3322C29.797 17.4343 29.6534 17.4796 29.574 17.5212C29.317 17.6346 28.7955 17.8198 28.2853 18.262C27.775 18.7079 27.3026 19.3844 26.8869 20.4086C26.4749 21.4329 26.3502 22.2341 26.4069 22.9068C26.4674 23.5871 26.6866 24.0293 26.7924 24.2901C26.8869 24.5206 26.9058 24.5697 26.8831 24.6453C26.8453 24.7625 26.6299 25.1631 25.9836 25.8169C25.3373 26.4783 24.9896 26.6786 24.8725 26.7164C24.7591 26.7542 24.7818 26.7656 24.4945 26.6673C24.3131 26.5842 23.7651 26.3423 23.0886 26.2931C22.4121 26.2478 21.6071 26.3876 20.5904 26.8185C19.57 27.2493 18.9086 27.7406 18.474 28.2546C18.0356 28.7762 17.8542 29.294 17.7446 29.551C17.6614 29.7588 17.6387 29.7853 17.5896 29.8155C17.4762 29.8722 17.034 29.9969 16.0023 29.9969C14.9667 29.9969 14.5208 29.8722 14.4149 29.8117C14.362 29.7853 14.3394 29.7588 14.2562 29.551C14.1428 29.294 13.9652 28.7762 13.5268 28.2584C13.0922 27.7406 12.4308 27.2493 11.4103 26.8185C10.3937 26.3876 9.58867 26.2478 8.91216 26.2931C8.23565 26.3423 7.68386 26.5842 7.50245 26.6673C7.219 26.7656 7.24546 26.7542 7.12452 26.7164C7.01114 26.6786 6.66343 26.4783 6.01716 25.8207C5.37466 25.1631 5.15168 24.7625 5.11389 24.6453C5.09121 24.5697 5.11389 24.5206 5.20837 24.2901C5.31419 24.0293 5.5334 23.5833 5.59387 22.9068C5.65056 22.2341 5.52584 21.4329 5.11011 20.4124C4.69816 19.3844 4.22573 18.7117 3.71552 18.262C3.2053 17.8198 2.68375 17.6346 2.42675 17.5212C2.34738 17.4796 2.19999 17.4343 2.16219 17.3322C2.1055 17.2188 1.99212 16.8145 1.99968 15.8885C2.00724 14.9663 2.13196 14.5355 2.18865 14.4259C2.21888 14.3427 2.37762 14.2747 2.47966 14.2369C2.8198 14.0933 3.25065 13.9535 3.76465 13.5188C4.2862 13.0804 4.75485 12.419 5.18947 11.4024C5.59765 10.4311 5.76394 9.59206 5.71481 8.91555C5.66946 8.23905 5.43135 7.74395 5.32931 7.47939C5.24617 7.24507 5.24239 7.24129 5.28018 7.12413C5.2953 7.06366 5.46537 6.72351 6.18723 6.01299C6.84484 5.36672 7.20388 5.15885 7.32104 5.12106C7.44198 5.08326 7.48356 5.10594 7.66119 5.17775C7.91819 5.28357 8.41706 5.52545 9.08979 5.58592C9.7663 5.64261 10.5449 5.52167 11.5993 5.0946C12.6235 4.67887 13.2433 4.26314 13.746 3.68867C14.1882 3.17846 14.3582 2.69092 14.4716 2.43392C14.585 2.17692 14.5888 2.1996 14.6493 2.1618C14.7702 2.09378 15.1859 1.99929 15.9985 1.99929C16.8148 1.99929 17.2306 2.09378 17.3515 2.1618ZM15.9985 10.0154C14.412 10.0223 12.8926 10.6565 11.7718 11.7794C10.651 12.9023 10.0197 14.4229 10.0157 16.0094C10.0157 19.3088 12.7067 21.9998 16.0023 21.9998C19.2979 21.9998 21.9926 19.3088 21.9926 16.0094C21.9886 14.4209 21.3558 12.8986 20.2326 11.7754C19.1093 10.6521 17.587 10.0193 15.9985 10.0154ZM15.9985 12.0184C18.217 12.0184 19.9971 13.7947 19.9971 16.0094C19.9971 18.2279 18.217 20.0005 15.9985 20.0005C15.4737 20.0025 14.9536 19.9006 14.4683 19.7008C13.9829 19.501 13.5419 19.2072 13.1706 18.8362C12.7993 18.4653 12.5051 18.0245 12.3048 17.5394C12.1045 17.0543 12.0022 16.5343 12.0037 16.0094C12.0037 13.7947 13.7838 12.0146 15.9985 12.0146V12.0184Z" fill="black"/>
</g>
<defs>
<clipPath id="clip0_2354_1315">
<rect width="32" height="32" fill="white"/>
</clipPath>
</defs>
</svg>
