<svg width="18" height="16" viewBox="0 0 18 16" fill="none" xmlns="http://www.w3.org/2000/svg">
<path d="M14.0964 0.894936C13.9376 0.624768 13.7116 0.400332 13.4403 0.243494C13.169 0.0866568 12.8618 0.00276747 12.5484 0H5.37682C5.06348 0.00276747 4.75619 0.0866568 4.4849 0.243494C4.21362 0.400332 3.98758 0.624768 3.82883 0.894936L0.243038 7.10506C0.0838209 7.38084 0 7.69366 0 8.01209C0 8.33053 0.0838209 8.64335 0.243038 8.91912L3.82883 15.1051C3.98758 15.3752 4.21362 15.5997 4.4849 15.7565C4.75619 15.9133 5.06348 15.9972 5.37682 16H12.5484C12.8618 15.9972 13.169 15.9133 13.4403 15.7565C13.7116 15.5997 13.9376 15.3752 14.0964 15.1051L17.6822 8.89494C17.8414 8.61916 17.9252 8.30634 17.9252 7.98791C17.9252 7.66947 17.8414 7.35665 17.6822 7.08088L14.0964 0.894936ZM11.986 8C11.986 8.59798 11.8087 9.18253 11.4765 9.67973C11.1443 10.1769 10.6721 10.5645 10.1196 10.7933C9.56717 11.0221 8.95926 11.082 8.37277 10.9653C7.78628 10.8487 7.24756 10.5607 6.82473 10.1379C6.40189 9.71505 6.11394 9.17633 5.99728 8.58984C5.88062 8.00335 5.94049 7.39544 6.16933 6.84298C6.39816 6.29052 6.78569 5.81833 7.28289 5.48611C7.78009 5.15389 8.36464 4.97657 8.96262 4.97657C9.76448 4.97657 10.5335 5.29511 11.1005 5.86211C11.6675 6.42911 11.986 7.19814 11.986 8Z" fill="#909BA4"/>
</svg>
