<svg width="17" height="16" viewBox="0 0 17 16" fill="none" xmlns="http://www.w3.org/2000/svg">
<path d="M3.01213 10.7439C3.01213 10.5498 2.93504 10.3637 2.79782 10.2265C2.66059 10.0892 2.47448 10.0122 2.28042 10.0122H1.5487C1.35464 10.0122 1.16852 10.0892 1.0313 10.2265C0.894077 10.3637 0.816986 10.5498 0.816986 10.7439L0.816986 13.3049C0.816986 13.79 1.00971 14.2553 1.35277 14.5984C1.69583 14.9414 2.16112 15.1342 2.64627 15.1342H14.3537C14.8389 15.1342 15.3042 14.9414 15.6472 14.5984C15.9903 14.2553 16.183 13.79 16.183 13.3049V10.7439C16.183 10.5498 16.1059 10.3637 15.9687 10.2265C15.8315 10.0892 15.6453 10.0122 15.4513 10.0122H14.7196C14.5255 10.0122 14.3394 10.0892 14.2022 10.2265C14.0649 10.3637 13.9879 10.5498 13.9879 10.7439V12.939H3.01213L3.01213 10.7439Z" fill="black"/>
<path d="M5.57323 4.52431C5.42854 4.52428 5.2871 4.48134 5.1668 4.40094C5.0465 4.32054 4.95273 4.20627 4.89737 4.07259C4.842 3.9389 4.82751 3.7918 4.85573 3.64988C4.88395 3.50797 4.95361 3.3776 5.05591 3.27527L7.98277 0.348409C8.11999 0.211233 8.30607 0.134173 8.50009 0.134173C8.69412 0.134173 8.8802 0.211233 9.01742 0.348409L11.9443 3.27527C12.0466 3.3776 12.1162 3.50797 12.1445 3.64988C12.1727 3.7918 12.1582 3.9389 12.1028 4.07259C12.0475 4.20627 11.9537 4.32054 11.8334 4.40094C11.7131 4.48134 11.5717 4.52428 11.427 4.52431H9.59767V10.378C9.59767 10.5721 9.52057 10.7582 9.38335 10.8954C9.24613 11.0326 9.06001 11.1097 8.86595 11.1097H8.13424C7.94017 11.1097 7.75406 11.0326 7.61684 10.8954C7.47961 10.7582 7.40252 10.5721 7.40252 10.378V4.52431H5.57323Z" fill="black"/>
</svg>
