<svg width="17" height="20" viewBox="0 0 17 20" fill="none" xmlns="http://www.w3.org/2000/svg">
<path d="M8.21709 9.63407C9.5406 9.63407 10.6867 9.15934 11.6231 8.22274C12.5596 7.28634 13.0343 6.14056 13.0343 4.8169C13.0343 3.49362 12.5596 2.34773 11.623 1.41097C10.6864 0.474687 9.54044 1.74333e-06 8.21709 1.74333e-06C6.89338 1.74333e-06 5.74757 0.474687 4.81117 1.41113C3.87476 2.34757 3.39988 3.4935 3.39988 4.8169C3.39988 6.14056 3.87472 7.2865 4.81132 8.22294C5.74792 9.15922 6.89385 9.63407 8.21709 9.63407ZM16.6458 15.379C16.6188 14.9893 16.5642 14.5641 16.4838 14.1153C16.4026 13.663 16.2981 13.2354 16.173 12.8446C16.0437 12.4407 15.868 12.0419 15.6507 11.6596C15.4251 11.2629 15.1603 10.9175 14.863 10.6332C14.5522 10.3358 14.1716 10.0967 13.7316 9.92227C13.293 9.74883 12.807 9.66094 12.2872 9.66094C12.083 9.66094 11.8856 9.74469 11.5043 9.99297C11.2332 10.1695 10.9613 10.3447 10.6887 10.5188C10.4267 10.6857 10.0718 10.8421 9.63337 10.9837C9.20568 11.1221 8.77142 11.1923 8.34279 11.1923C7.9142 11.1923 7.48006 11.1221 7.0519 10.9837C6.61401 10.8422 6.25909 10.6859 5.99737 10.5189C5.69386 10.325 5.41925 10.148 5.18105 9.99277C4.80019 9.74453 4.60257 9.66075 4.39843 9.66075C3.8784 9.66075 3.39258 9.74879 2.95418 9.92246C2.51442 10.0966 2.13372 10.3357 1.82258 10.6334C1.52552 10.9178 1.26048 11.263 1.03524 11.6596C0.818135 12.0419 0.642355 12.4406 0.512941 12.8448C0.387942 13.2356 0.28345 13.663 0.202278 14.1153C0.121849 14.5635 0.0672397 14.9888 0.0402086 15.3794C0.0133189 15.7725 -9.30167e-06 16.1664 0.00024779 16.5604C0.00024779 17.6045 0.332121 18.4496 0.986572 19.0729C1.63294 19.6881 2.48817 20.0001 3.5282 20.0001H13.1583C14.1984 20.0001 15.0533 19.6882 15.6998 19.073C16.3544 18.4501 16.6863 17.6048 16.6863 16.5603C16.6861 16.1573 16.6726 15.7598 16.6458 15.379Z" fill="#909BA4"/>
</svg>
