<svg width="35" height="33" viewBox="0 0 35 33" fill="none" xmlns="http://www.w3.org/2000/svg">
<path d="M21.6941 2.89666C21.2726 2.15597 20.6625 1.5401 19.9258 1.11169C19.1891 0.683271 18.3521 0.457588 17.4999 0.457588C16.6477 0.457588 15.8107 0.683271 15.074 1.11169C14.3373 1.5401 13.7272 2.15597 13.3057 2.89666L0.603657 25.5271C0.200308 26.2373 -0.00821164 27.0414 -0.000784892 27.8581C0.00664185 28.6748 0.229751 29.475 0.645949 30.1777C1.06826 30.9027 1.6747 31.5032 2.40382 31.9183C3.13294 32.3335 3.95883 32.5485 4.79782 32.5417H30.202C31.041 32.5485 31.8669 32.3335 32.596 31.9183C33.3251 31.5032 33.9316 30.9027 34.3539 30.1777C34.7701 29.475 34.9932 28.6748 35.0006 27.8581C35.008 27.0414 34.7995 26.2373 34.3962 25.5271L21.6941 2.89666ZM31.8368 28.7092C31.6689 28.9921 31.4293 29.2257 31.1423 29.3865C30.8553 29.5473 30.5309 29.6295 30.202 29.625H4.79782C4.46844 29.6291 4.14382 29.5462 3.85677 29.3846C3.56971 29.223 3.33041 28.9885 3.16303 28.7048C3.00438 28.4411 2.91923 28.1397 2.91641 27.832C2.91359 27.5242 2.9932 27.2214 3.14699 26.9548L15.8491 4.32291C16.029 4.04943 16.274 3.82493 16.5622 3.66959C16.8503 3.51424 17.1726 3.43291 17.4999 3.43291C17.8273 3.43291 18.1495 3.51424 18.4376 3.66959C18.7258 3.82493 18.9708 4.04943 19.1507 4.32291L31.8528 26.9533C32.0069 27.2201 32.0867 27.5232 32.0838 27.8312C32.081 28.1393 31.9957 28.4409 31.8368 28.7048V28.7092Z" fill="#E55300"/>
<path d="M17.4998 9.20833C17.1131 9.20833 16.7421 9.36197 16.4686 9.63546C16.1951 9.90896 16.0415 10.2799 16.0415 10.6667V19.4167C16.0415 19.8034 16.1951 20.1744 16.4686 20.4479C16.7421 20.7213 17.1131 20.875 17.4998 20.875C17.8866 20.875 18.2575 20.7213 18.531 20.4479C18.8045 20.1744 18.9582 19.8034 18.9582 19.4167V10.6667C18.9582 10.2799 18.8045 9.90896 18.531 9.63546C18.2575 9.36197 17.8866 9.20833 17.4998 9.20833Z" fill="#E55300"/>
<path d="M17.4998 26.7083C18.3053 26.7083 18.9582 26.0554 18.9582 25.25C18.9582 24.4446 18.3053 23.7917 17.4998 23.7917C16.6944 23.7917 16.0415 24.4446 16.0415 25.25C16.0415 26.0554 16.6944 26.7083 17.4998 26.7083Z" fill="#E55300"/>
</svg>
